<?xml version="1.0" encoding="UTF-8" standalone="no"?>
<svg
   xmlns:dc="http://purl.org/dc/elements/1.1/"
   xmlns:cc="http://creativecommons.org/ns#"
   xmlns:rdf="http://www.w3.org/1999/02/22-rdf-syntax-ns#"
   xmlns:svg="http://www.w3.org/2000/svg"
   xmlns="http://www.w3.org/2000/svg"
   id="svg949"
   version="1.1"
   viewBox="0 0 187.57373 65.929306"
   height="65.929306mm"
   width="187.57373mm">
  <defs
     id="defs943" />
  <metadata
     id="metadata946">
    <rdf:RDF>
      <cc:Work
         rdf:about="">
        <dc:format>image/svg+xml</dc:format>
        <dc:type
           rdf:resource="http://purl.org/dc/dcmitype/StillImage" />
        <dc:title></dc:title>
      </cc:Work>
    </rdf:RDF>
  </metadata>
  <g
     transform="translate(-11.668495,-33.288385)"
     id="layer1">
    <path
       id="path951"
       style="font-style:normal;font-variant:normal;font-weight:normal;font-stretch:normal;font-size:96px;line-height:1.25;font-family:'Enthrall Bold Personal Use';-inkscape-font-specification:'Enthrall Bold Personal Use';letter-spacing:0px;word-spacing:0px;fill:#000000;fill-opacity:1;stroke:none;stroke-width:0.70494461"
       d="m 72.927618,42.559817 q -1.285819,5.075601 -4.263505,9.406781 -2.910011,4.331179 -6.902818,7.511889 -3.925131,3.18071 -8.594684,4.940252 -4.601879,1.759542 -9.271432,1.691867 -3.586758,-0.06767 -6.226071,-1.150469 -2.571638,-1.082795 -4.263505,-2.910012 -1.624192,-1.827216 -2.368613,-4.128155 -0.676747,-2.368614 -0.406049,-4.872577 0.676747,-4.534204 3.789783,-8.188637 3.113035,-3.722108 7.782588,-6.226071 4.669553,-2.571638 10.421901,-3.925131 5.820023,-1.421169 11.910744,-1.421169 4.060481,0 8.053288,0.609072 4.128155,0.609072 7.985612,1.962566 3.925132,1.353494 7.173517,3.383734 3.248384,-1.556517 6.767468,-2.503963 3.586758,-0.947446 7.714918,-1.15047 2.36861,-0.06767 4.39885,0.406049 2.09792,0.406048 3.65443,1.285818 1.55652,0.812097 2.43629,2.030241 0.94745,1.15047 0.94745,2.503963 0,1.15047 -0.5414,2.097915 -0.47372,0.947446 -1.35349,1.624193 -0.87978,0.609072 -1.96257,0.947445 -1.01512,0.338374 -2.03024,0.338374 -1.15047,0 -2.09792,-0.609072 -0.94744,-0.609073 -1.69186,-1.962566 1.01512,0 1.69186,-0.203024 0.74443,-0.270699 1.15047,-0.609072 0.40605,-0.338374 0.5414,-0.744422 0.20303,-0.406048 0.20303,-0.676747 0,-1.150469 -1.3535,-2.097915 -1.28582,-0.947445 -4.33118,-1.01512 -3.113033,-0.06768 -6.023045,0.609072 -2.910011,0.676747 -5.346299,1.827216 2.571637,2.16559 3.992806,4.940252 1.488843,2.774662 1.421168,6.090722 0,2.436288 -0.947445,4.601878 -0.947446,2.16559 -2.571638,3.992806 -1.556518,1.827217 -3.722108,3.248385 -2.097915,1.421168 -4.466529,2.368614 1.421168,1.759542 2.097915,4.060481 0.676747,2.233265 0.676747,4.804904 0,1.218144 -0.203024,2.436288 -0.135349,1.218145 -0.473723,2.368614 -0.879771,3.045361 -2.774662,6.36142 -1.827216,3.248385 -4.466529,5.955373 -2.639312,2.774662 -5.955372,4.601878 -3.248385,1.827216 -6.902818,1.894891 -3.992806,0.06767 -5.887697,-1.962566 -1.894891,-2.03024 -1.894891,-5.21095 0,-2.639313 1.353494,-5.684674 1.421168,-3.04536 4.060481,-5.616998 2.639312,-2.639313 6.36142,-4.398855 3.789782,-1.759543 8.52701,-1.894892 -1.285819,0.406048 -2.977686,1.624194 -1.624193,1.150469 -3.113036,2.639312 -1.488843,1.488843 -2.503963,3.045361 -1.01512,1.556518 -1.01512,2.639313 0,1.218144 2.233264,1.218144 0.676747,0 2.097916,-0.676747 1.488843,-0.744421 3.113035,-1.962566 1.624192,-1.218144 3.18071,-2.842336 1.556518,-1.691867 2.436289,-3.654433 1.218144,-2.706989 1.218144,-4.872579 0,-0.879771 -0.473723,-2.097915 -0.406048,-1.218144 -0.744421,-1.962566 -1.759542,0.541398 -3.519084,0.879771 -1.759542,0.270699 -3.451409,0.270699 -2.774662,0 -3.992806,-1.01512 -1.218144,-1.015121 -1.218144,-2.233265 0,-1.421168 1.556517,-2.571638 1.624193,-1.218144 4.466529,-0.812096 3.045361,0.541397 5.549324,2.16559 1.759542,-1.01512 3.248385,-2.436289 1.556518,-1.488843 2.706987,-3.045361 1.218145,-1.624192 1.962566,-3.18071 0.744422,-1.624192 0.879771,-2.910011 0.203024,-2.842337 -0.744421,-5.210951 -0.879771,-2.368613 -2.436289,-4.06048 -3.113035,2.03024 -5.887697,4.737227 -2.706988,2.639313 -5.210951,5.820023 -2.503963,3.18071 -4.872577,6.699794 -2.368614,3.451408 -4.737228,7.105841 -3.857457,5.955372 -7.985612,11.707722 -4.060481,5.752348 -8.865384,10.218877 -4.804902,4.534204 -10.624925,7.173516 -5.820023,2.706987 -13.196563,2.503963 -2.639313,-0.06767 -5.278625,-0.87977 -2.571638,-0.812097 -4.601879,-2.368614 -1.962565,-1.488843 -3.18071,-3.722108 -1.218144,-2.233264 -1.082795,-5.21095 0.06768,-1.827217 0.744422,-3.789783 0.676747,-2.03024 2.03024,-3.383734 1.015121,-1.01512 2.436289,-1.624192 1.421168,-0.676747 3.045361,-0.676747 1.01512,0 2.300939,0.406048 1.353493,0.406048 2.503963,1.15047 0.541398,-1.218145 2.030241,-2.233265 1.488843,-1.082795 3.519083,-1.082795 1.556518,0 3.925132,1.285819 -1.488843,1.353494 -2.16559,2.503963 -0.609072,1.082795 -0.609072,1.894892 0,1.353493 1.218144,2.300939 1.285819,0.947445 3.383734,0.947445 1.15047,0 2.436289,-0.338373 1.353493,-0.406048 2.706987,-1.15047 3.18071,-1.827216 6.090721,-4.19583 2.910012,-2.436289 5.616999,-5.210952 2.774662,-2.774662 5.278625,-5.752348 2.503964,-2.977686 4.872577,-5.887697 2.368614,-2.910012 4.872578,-5.887698 2.503963,-2.977686 5.21095,-5.752348 2.706987,-2.774662 5.549324,-5.21095 2.842337,-2.503964 5.887697,-4.33118 -3.18071,-1.962566 -7.37654,-2.842337 -4.19583,-0.947445 -8.323986,-0.947445 -0.676747,0 -1.353494,0 -0.609072,0 -1.218144,0.06767 -3.925131,0.13535 -7.444215,1.624193 -3.519083,1.421168 -6.226071,3.586758 -2.639312,2.097915 -4.263505,4.601878 -1.556517,2.436289 -1.556517,4.534204 0,1.894891 1.624192,3.18071 1.691867,1.218145 5.481649,1.353494 2.774662,0.06768 5.278625,-0.947446 2.571638,-1.082795 4.940252,-2.910011 2.368614,-1.827216 4.534204,-4.33118 2.16559,-2.503963 4.263505,-5.413974 z m 2.774662,23.483115 q 2.030241,-0.13535 3.722108,-0.812097 -1.488843,-0.676746 -3.586759,-0.812096 -1.353493,-0.135349 -2.165589,0.270699 -0.812097,0.338373 -0.812097,0.676747 0,0.270698 0.609073,0.473723 0.676746,0.203024 2.233264,0.203024 z" />
    <path
       id="path953"
       style="font-style:normal;font-variant:normal;font-weight:normal;font-stretch:normal;font-size:96px;line-height:1.25;font-family:'Enthrall Bold Personal Use';-inkscape-font-specification:'Enthrall Bold Personal Use';letter-spacing:0px;word-spacing:0px;fill:#000000;fill-opacity:1;stroke:none;stroke-width:0.70494461"
       d="m 110.7916,71.79528 q 0.33838,-0.270699 0.67675,-0.13535 0.40605,0.06767 0.67675,0.406048 0.2707,0.338374 0.33837,0.744422 0.0677,0.406048 -0.20302,0.676747 l -7.57957,7.579566 q -1.21814,1.218144 -2.63931,2.436288 -1.35349,1.218144 -2.842338,2.16559 -1.488843,0.947445 -3.18071,1.488843 -1.624192,0.541397 -3.316059,0.473723 -2.16559,-0.13535 -3.045361,-1.218145 -0.947446,-1.082794 -0.947446,-2.774662 0,-1.624192 0.744422,-3.451408 0.744421,-1.827217 2.097915,-3.586759 v 0.06767 L 109.23509,49.530309 h 7.10584 L 98.339461,76.803208 q -0.744421,1.218144 -1.218144,2.368613 -0.473723,1.082795 -0.473723,1.827217 0,1.150469 1.488843,1.150469 0.812096,0 1.894893,-0.676746 1.15047,-0.744422 2.43629,-1.759542 1.28582,-1.01512 2.50396,-2.16559 1.21814,-1.218144 2.23326,-2.233266 z" />
    <path
       id="path955"
       style="font-style:normal;font-variant:normal;font-weight:normal;font-stretch:normal;font-size:96px;line-height:1.25;font-family:'Enthrall Bold Personal Use';-inkscape-font-specification:'Enthrall Bold Personal Use';letter-spacing:0px;word-spacing:0px;fill:#000000;fill-opacity:1;stroke:none;stroke-width:0.70494461"
       d="m 145.2634,71.79528 q 0.33837,-0.270699 0.67674,-0.13535 0.40605,0.06767 0.67675,0.406048 0.2707,0.338374 0.33837,0.744422 0.0677,0.406048 -0.20302,0.676747 l -7.57956,7.579566 q -1.21815,1.218144 -2.63932,2.436288 -1.35349,1.218144 -2.84233,2.16559 -1.48885,0.947445 -3.18071,1.488843 -1.6242,0.541397 -3.31606,0.473723 -2.16559,-0.06768 -3.18071,-1.218145 -0.94745,-1.150469 -0.94745,-2.842336 0,-0.338374 0,-0.541398 0,-0.270698 0.0677,-0.609072 -2.84234,2.503963 -5.95538,3.925132 -3.04536,1.421168 -6.09072,1.421168 -2.97769,0 -4.5342,-1.353494 -1.6242,-1.353493 -1.8949,-3.519083 -0.13534,-1.827216 0.87978,-3.992806 0.94744,-2.16559 2.63931,-4.263507 1.75954,-2.16559 3.9928,-4.128155 2.30094,-1.962566 4.80491,-3.451409 2.50396,-1.556518 5.0756,-2.368614 2.57164,-0.879771 4.8049,-0.812096 2.36862,0.135349 3.38374,1.488843 1.08279,1.285819 1.28582,2.977686 l 2.36861,-3.654433 h 7.30887 q -0.60908,0.812096 -1.55652,2.16559 -0.94745,1.353493 -2.03024,2.977686 -1.0828,1.624192 -2.30094,3.451409 -1.15047,1.759541 -2.30094,3.519085 -0.8121,1.353493 -1.28582,2.436288 -0.47372,1.082795 -0.47372,1.894891 0,1.01512 1.35349,1.01512 1.55652,0 4.73723,-2.842336 3.24838,-2.842337 7.91794,-7.511891 z m -28.3557,10.151203 q 1.21815,0 2.43629,-0.406048 1.21815,-0.473722 2.30094,-1.150469 1.15047,-0.744422 2.16559,-1.624193 1.01512,-0.879771 1.82722,-1.691867 l 3.11303,-4.669554 q 0.67675,-1.15047 0.67675,-2.436289 0,-1.150469 -0.67675,-2.097915 -0.67674,-1.01512 -2.03024,-1.15047 -2.23326,-0.135349 -4.5342,1.218145 -2.30094,1.285819 -4.26351,3.316059 -1.89489,1.962566 -3.11303,4.263507 -1.21815,2.233264 -1.21815,3.925131 0,1.15047 0.74442,1.827217 0.8121,0.676746 2.57164,0.676746 z" />
    <path
       id="path957"
       style="font-style:normal;font-variant:normal;font-weight:normal;font-stretch:normal;font-size:96px;line-height:1.25;font-family:'Enthrall Bold Personal Use';-inkscape-font-specification:'Enthrall Bold Personal Use';letter-spacing:0px;word-spacing:0px;fill:#000000;fill-opacity:1;stroke:none;stroke-width:0.70494461"
       d="m 157.36765,72.945749 q -0.74442,-0.541397 -0.94745,-1.624192 -0.13535,-1.15047 0.33838,-2.16559 0.54139,-1.082795 1.75954,-1.827216 1.21814,-0.744422 3.38373,-0.541398 0.2707,0 0,-0.338373 -0.20302,-0.406048 -1.69187,-0.338374 -1.82721,0.06767 -3.85745,1.218145 -2.03024,1.082794 -3.78978,2.774662 -1.75955,1.624192 -3.18071,3.654432 -1.3535,1.962568 -1.82722,3.789784 -0.20303,0.947446 -0.13535,1.759542 0.0677,0.812096 0.47372,1.488843 0.47373,0.609072 1.28582,1.01512 0.87977,0.338373 2.23327,0.338373 2.09791,0 4.19583,-0.812096 2.16559,-0.812096 4.33118,-2.16559 2.23326,-1.421168 4.39885,-3.316059 2.23326,-1.894893 4.46653,-4.060482 v 0.06767 q 0.2707,-0.270698 0.60907,-0.203024 0.40605,0.06767 0.67675,0.406048 0.2707,0.270699 0.33837,0.744422 0.0677,0.406048 -0.2707,0.744421 -2.30094,2.300941 -5.21095,4.804904 -2.84233,2.503963 -6.02304,4.601879 -3.11304,2.03024 -6.36142,3.383734 -3.24839,1.353493 -6.36142,1.353493 -2.23327,0 -3.58676,-0.676746 -1.28582,-0.609073 -1.96257,-1.556518 -0.67675,-1.01512 -0.87977,-2.097915 -0.20302,-1.082795 -0.20302,-1.962566 0.20302,-2.842337 2.16559,-5.955372 1.89489,-3.113037 4.87257,-5.617 2.97769,-2.571638 6.56445,-4.195831 3.65443,-1.691867 7.24119,-1.691867 1.96256,0 3.18071,0.812097 1.21814,0.744421 1.35349,2.368613 0.13535,1.624193 -0.67674,3.248385 -0.8121,1.624193 -2.77467,2.706988 -0.20302,0.135349 -0.67674,0.338373 -0.47373,0.135349 -1.0828,0.203024 -0.60907,0 -1.21814,-0.135349 -0.60907,-0.13535 -1.15047,-0.541398 z" />
    <path
       id="path959"
       style="font-style:normal;font-variant:normal;font-weight:normal;font-stretch:normal;font-size:96px;line-height:1.25;font-family:'Enthrall Bold Personal Use';-inkscape-font-specification:'Enthrall Bold Personal Use';letter-spacing:0px;word-spacing:0px;fill:#000000;fill-opacity:1;stroke:none;stroke-width:0.70494461"
       d="m 158.35316,87.563482 25.71638,-37.965498 h 7.10584 l -15.7682,23.41544 q 0.67675,0 1.28582,-0.338374 0.60907,-0.406048 1.15047,-0.947445 0.60907,-0.541398 1.08279,-1.15047 0.5414,-0.609072 0.94745,-1.082795 0.87977,-1.01512 1.89489,-2.097915 1.0828,-1.150469 2.23327,-2.03024 1.21814,-0.879771 2.57163,-1.421169 1.42117,-0.609072 3.04536,-0.541397 0.67675,0 1.48885,0.270699 0.81209,0.203024 1.42117,0.744421 0.67674,0.473723 1.08279,1.218144 0.40605,0.744422 0.40605,1.827217 -0.0677,1.556518 -0.87977,2.571638 -0.8121,1.01512 -1.96257,1.691867 -1.08279,0.609072 -2.23326,0.947445 -1.15047,0.270699 -1.82722,0.338374 -0.67675,0.135349 -1.08279,-0.135349 -0.33838,-0.338374 -0.40605,-0.744422 -0.0677,-0.473723 0.13535,-0.947446 0.2707,-0.473722 0.87977,-0.676746 0.5414,-0.13535 0.87977,-0.473723 0.40605,-0.406048 0.40605,-0.879771 0,-0.676747 -1.15047,-0.676747 -0.74442,0 -1.6242,0.676747 -0.87977,0.676747 -1.89489,1.624192 -0.74442,0.676747 -1.55651,1.353494 -0.74443,0.676747 -1.55652,1.285819 1.75954,0.812096 2.77466,2.503965 1.01512,1.691867 0.60907,4.128155 -0.13535,0.541398 0.20303,0.812096 0.40604,0.203025 1.01512,0.203025 2.30094,0 5.75234,-2.639313 h -0.0677 q 0,0 0,-0.06768 0.74442,-0.609072 1.42117,-1.150469 0.67675,-0.541398 1.35349,-1.15047 l 4.33118,-4.263506 q 0.33838,-0.270699 0.67675,-0.13535 0.40605,0.06767 0.67675,0.406048 0.27069,0.338374 0.33837,0.744422 0.0677,0.406048 -0.20303,0.676747 l -7.85026,7.511891 q -0.94744,0.812096 -1.75954,1.421168 -0.8121,0.609072 -1.75954,1.218144 v -0.06767 q -0.60907,0.473723 -1.69187,1.150469 -1.01512,0.676747 -2.23326,1.353494 -1.15047,0.609072 -2.30094,1.082795 -1.15047,0.473723 -1.89489,0.541397 -2.16559,0.13535 -3.51909,-1.218144 -1.28582,-1.353494 -0.54139,-4.19583 0.20302,-0.744422 0.54139,-1.556518 0.40605,-0.812096 0.8121,-1.624192 0.47372,-0.947446 0.8121,-1.759542 0.33837,-0.812096 0.40604,-1.15047 0,-0.676746 -0.47372,-0.879772 -0.47372,-0.203024 -1.15047,-0.203024 -0.60907,0 -1.35349,0.06767 -0.67675,0.06767 -1.0828,-0.13535 l -8.45933,12.519818 z" />
    <path
       id="path971"
       style="font-style:normal;font-variant:normal;font-weight:normal;font-stretch:normal;font-size:7.76111126px;line-height:4.25;font-family:'Bodoni MT';-inkscape-font-specification:'Bodoni MT';letter-spacing:2.68816662px;word-spacing:0px;fill:#0066ff;fill-opacity:1;stroke:none;stroke-width:0.4923248"
       d="m 101.88676,89.421676 0.0423,2.453927 h -0.33142 q -0.70515,-2.207135 -2.489189,-2.207135 -0.987214,0 -1.537233,0.550021 -0.542966,0.542968 -0.542966,1.12825 0,0.542969 0.451296,0.923754 0.458351,0.380785 1.664161,0.592315 1.205811,0.204497 1.833401,0.507726 0.63463,0.296158 1.06478,0.994257 0.43719,0.6981 0.43719,1.600696 0,1.389147 -0.90965,2.3129 -0.90259,0.923754 -2.242381,0.923754 -1.092987,0 -2.178922,-0.810936 l -0.662844,0.592334 H 96.23849 V 96.33922 h 0.303216 q 0.41604,1.24812 1.163502,1.875697 0.747462,0.627596 1.635954,0.627596 0.881438,0 1.614798,-0.57823 0.74041,-0.585282 0.74041,-1.473774 0,-0.747447 -0.51476,-1.255172 -0.50771,-0.51476 -1.657108,-0.705152 Q 98.382155,94.63274 97.768671,94.378896 97.155189,94.117981 96.717994,93.483352 96.2808,92.84167 96.2808,92.065996 q 0,-1.071833 0.761564,-1.910959 0.761565,-0.846197 2.066097,-0.846197 1.092989,0 2.037889,0.691048 0.26091,-0.246792 0.4513,-0.578212 z" />
    <path
       id="path973"
       style="font-style:normal;font-variant:normal;font-weight:normal;font-stretch:normal;font-size:7.76111126px;line-height:4.25;font-family:'Bodoni MT';-inkscape-font-specification:'Bodoni MT';letter-spacing:2.68816662px;word-spacing:0px;fill:#0066ff;fill-opacity:1;stroke:none;stroke-width:0.4923248"
       d="m 112.50179,95.817408 v -0.719256 q 0,-0.88144 -0.14807,-1.156459 -0.14103,-0.275001 -0.77567,-0.275001 -1.14235,0 -1.14235,0.437184 0,0.126904 0.0917,0.282072 0.0987,0.148116 0.0987,0.352576 0,0.289105 -0.19039,0.444237 -0.19039,0.148116 -0.43014,0.148116 -0.31027,0 -0.47951,-0.190393 -0.16924,-0.197444 -0.16924,-0.45836 0,-0.564125 0.6558,-0.94491 0.66284,-0.387818 1.84045,-0.387818 0.9449,0 1.3821,0.218583 0.43719,0.218601 0.53591,0.542968 0.10577,0.324386 0.10577,0.916701 v 2.594972 q 0,0.571178 0.0776,0.712204 0.0846,0.141045 0.25386,0.141045 0.25385,0 0.49361,-0.345523 h 0.16923 q -0.18334,1.029518 -1.19876,1.029518 -0.98016,0 -1.17055,-1.12825 -0.82503,1.12825 -1.93212,1.12825 -0.73336,0 -1.17056,-0.394889 -0.43719,-0.401923 -0.43719,-0.980153 0,-1.798141 3.53987,-1.967376 z m 0,1.085937 v -0.76157 q -1.30453,0.04931 -1.72057,0.39489 -0.41604,0.338471 -0.41604,0.987205 0,0.472464 0.2468,0.733361 0.25386,0.260915 0.57823,0.260915 0.41604,0 0.74746,-0.27502 0.33847,-0.282053 0.4513,-0.564125 0.11282,-0.282053 0.11282,-0.775656 z" />
    <path
       id="path975"
       style="font-style:normal;font-variant:normal;font-weight:normal;font-stretch:normal;font-size:7.76111126px;line-height:4.25;font-family:'Bodoni MT';-inkscape-font-specification:'Bodoni MT';letter-spacing:2.68816662px;word-spacing:0px;fill:#0066ff;fill-opacity:1;stroke:none;stroke-width:0.4923248"
       d="m 121.72768,98.623911 v -4.823245 h -1.14235 v -0.359628 h 1.15645 q 0.8885,0 1.35389,-0.09173 v 1.332728 h 0.0282 q 0.49361,-1.332728 1.45967,-1.332728 0.42309,0 0.67695,0.260896 0.2609,0.253863 0.2609,0.620543 0,0.338472 -0.21154,0.550021 -0.2045,0.204497 -0.53592,0.204497 -0.60643,0 -0.60643,-0.606439 l 0.0282,-0.30321 q 0,-0.162258 -0.14808,-0.162258 -0.2327,0 -0.59233,0.627577 -0.35963,0.627577 -0.35963,1.918011 v 2.164821 h 1.17056 v 0.359628 h -3.68091 v -0.359479 z" />
    <path
       id="path977"
       style="font-style:normal;font-variant:normal;font-weight:normal;font-stretch:normal;font-size:7.76111126px;line-height:4.25;font-family:'Bodoni MT';-inkscape-font-specification:'Bodoni MT';letter-spacing:2.68816662px;word-spacing:0px;fill:#0066ff;fill-opacity:1;stroke:none;stroke-width:0.4923248"
       d="m 133.51327,89.421676 v 4.95722 h 0.0282 q 0.52886,-1.114146 1.73467,-1.114146 1.03658,0 1.80519,0.88144 0.76862,0.874387 0.76862,2.037899 0,1.142336 -0.75451,2.059037 -0.75452,0.916701 -1.74878,0.916701 -1.19876,0 -1.80519,-1.290434 h -0.0282 v 1.198773 q -0.48656,-0.08466 -1.32569,-0.08466 h -1.02952 v -0.359591 h 0.98721 V 89.88707 h -0.98721 v -0.359628 h 0.98721 q 0.87439,0 1.368,-0.105691 z m 1.74878,9.371471 q 0.70515,0 0.85323,-0.557073 0.15513,-0.557073 0.15513,-2.094299 0,-1.565434 -0.16218,-2.059037 -0.15513,-0.500673 -0.87439,-0.500673 -0.55707,0 -0.98016,0.345523 -0.42309,0.33849 -0.59233,0.803884 -0.16218,0.458341 -0.16218,1.621853 0,1.135283 0.53591,1.791088 0.54297,0.648734 1.22697,0.648734 z" />
    <path
       id="path979"
       style="font-style:normal;font-variant:normal;font-weight:normal;font-stretch:normal;font-size:7.76111126px;line-height:4.25;font-family:'Bodoni MT';-inkscape-font-specification:'Bodoni MT';letter-spacing:2.68816662px;word-spacing:0px;fill:#0066ff;fill-opacity:1;stroke:none;stroke-width:0.4923248"
       d="m 144.89692,90.620431 q 0,-0.310263 0.22565,-0.535916 0.2327,-0.225654 0.54297,-0.225654 0.31026,0 0.53591,0.225654 0.2327,0.218601 0.2327,0.535916 0,0.331419 -0.22565,0.55002 -0.22565,0.218602 -0.54296,0.218602 -0.31732,0 -0.54297,-0.218602 -0.22565,-0.225653 -0.22565,-0.55002 z m 1.41735,2.714842 v 5.288638 h 0.92376 v 0.359628 h -3.27897 v -0.359628 h 0.98722 v -4.823245 h -0.98722 v -0.359628 h 1.00132 q 0.71926,0 1.35389,-0.105691 z" />
    <path
       id="path981"
       style="font-style:normal;font-variant:normal;font-weight:normal;font-stretch:normal;font-size:7.76111126px;line-height:4.25;font-family:'Bodoni MT';-inkscape-font-specification:'Bodoni MT';letter-spacing:2.68816662px;word-spacing:0px;fill:#0066ff;fill-opacity:1;stroke:none;stroke-width:0.4923248"
       d="m 153.92537,98.623911 v -4.823245 h -1.00133 v -0.359628 h 0.6417 q 0.95195,0 1.72762,-0.105691 v 1.375042 h 0.0283 q 0.72631,-1.445565 2.05199,-1.445565 0.62054,0 1.01543,0.317315 0.40192,0.317333 0.54297,0.747465 0.14812,0.430151 0.14812,1.332748 v 2.961633 h 1.10004 v 0.359629 h -3.41294 v -0.359703 h 0.93785 v -3.525759 q 0,-0.810936 -0.10569,-1.121198 -0.0986,-0.310262 -0.52886,-0.310262 -0.684,0 -1.23402,0.705152 -0.54297,0.698099 -0.54297,1.882749 v 2.369318 h 0.92376 v 0.359628 h -3.29307 v -0.359628 z" />
    <path
       id="path983"
       style="font-style:normal;font-variant:normal;font-weight:normal;font-stretch:normal;font-size:7.76111126px;line-height:4.25;font-family:'Bodoni MT';-inkscape-font-specification:'Bodoni MT';letter-spacing:2.68816662px;word-spacing:0px;fill:#0066ff;fill-opacity:1;stroke:none;stroke-width:0.4923248"
       d="m 165.97186,96.198193 q 0,-1.219911 0.83913,-2.07316 0.83912,-0.860283 2.08019,-0.860283 1.21288,0 2.05201,0.82504 0.84617,0.81797 0.84617,2.051985 0,1.262225 -0.87438,2.143665 -0.87439,0.874387 -2.06609,0.874387 -1.17057,0 -2.0238,-0.853231 -0.85323,-0.860282 -0.85323,-2.108403 z m 4.23091,0 q 0,-1.297486 -0.0917,-1.713532 -0.0847,-0.416028 -0.39489,-0.655786 -0.30321,-0.24681 -0.83913,-0.24681 -0.50772,0 -0.83914,0.253862 -0.32437,0.246811 -0.40194,0.662839 -0.0776,0.416046 -0.0776,1.713532 0,1.30452 0.0917,1.727618 0.0988,0.423099 0.41604,0.662838 0.32437,0.239759 0.81094,0.239759 0.4936,0 0.81797,-0.239759 0.33142,-0.246792 0.41604,-0.676942 0.0917,-0.437204 0.0917,-1.727619 z" />
    <path
       id="path985"
       style="font-style:normal;font-variant:normal;font-weight:normal;font-stretch:normal;font-size:7.76111126px;line-height:4.25;font-family:'Bodoni MT';-inkscape-font-specification:'Bodoni MT';letter-spacing:2.68816662px;word-spacing:0px;fill:#0066ff;fill-opacity:1;stroke:none;stroke-width:0.4923248"
       d="m 186.64571,93.837881 -2.0379,5.359161 h -0.23976 l -1.62185,-3.843073 -1.54428,3.843073 h -0.23271 l -2.24943,-5.359161 h -0.88144 v -0.359628 h 3.27895 v 0.359628 h -0.95194 l 1.45967,3.476412 1.54428,-3.83604 h 0.22565 l 1.60775,3.83604 1.29747,-3.476412 h -1.02247 v -0.359628 h 2.22124 v 0.359628 z" />
    <path
       id="path987"
       style="font-style:normal;font-variant:normal;font-weight:normal;font-stretch:normal;font-size:7.76111126px;line-height:4.25;font-family:'Bodoni MT';-inkscape-font-specification:'Bodoni MT';letter-spacing:2.68816662px;word-spacing:0px;fill:#0066ff;fill-opacity:1;stroke:none;stroke-width:0.4923248"
       d="m 193.4247,96.235408 q 0,-1.219911 0.83914,-2.07316 0.83913,-0.860283 2.0802,-0.860283 1.21286,0 2.05198,0.82504 0.8462,0.81797 0.8462,2.051985 0,1.262225 -0.87439,2.143665 -0.8744,0.874387 -2.06611,0.874387 -1.17054,0 -2.02379,-0.85323 -0.85323,-0.860283 -0.85323,-2.108404 z m 4.23093,0 q 0,-1.297486 -0.0917,-1.713532 -0.0847,-0.416027 -0.39489,-0.655786 -0.30321,-0.24681 -0.83912,-0.24681 -0.50771,0 -0.83913,0.253863 -0.32436,0.24681 -0.40194,0.662838 -0.0776,0.416046 -0.0776,1.713532 0,1.30452 0.0917,1.727618 0.0986,0.423099 0.41605,0.662838 0.32437,0.239759 0.81092,0.239759 0.4936,0 0.81796,-0.239759 0.33144,-0.246792 0.41605,-0.676942 0.0917,-0.437203 0.0917,-1.727619 z" />
  </g>
</svg>
